<svg width="1080" height="1080" viewBox="0 0 1080 1080" fill="none" xmlns="http://www.w3.org/2000/svg">
<rect width="1080" height="1080" fill="#5BC28E"/>
<path d="M540 203C726.12 203 877 353.88 877 540C877 726.12 726.12 877 540 877C353.88 877 203 726.12 203 540C203 353.88 353.88 203 540 203ZM540 327C422.363 327 327 422.363 327 540C327 657.637 422.363 753 540 753C657.637 753 753 657.637 753 540C753 422.363 657.637 327 540 327Z" fill="#ABFED5"/>
<circle cx="540" cy="528" r="50" fill="#CDFBE4"/>
<ellipse cx="440" cy="403.5" rx="29" ry="76.5" fill="#FEFFFE"/>
<ellipse cx="640" cy="410.5" rx="29" ry="76.5" fill="#FEFFFE"/>
<path d="M676 551.5L764.5 527.786M676 590H764.5M676 628L751 648.096" stroke="#F2F2F2" stroke-width="7"/>
<path d="M404.5 551.5L316 527.786M404.5 590H316M404.5 628L329.5 648.096" stroke="#F2F2F2" stroke-width="7"/>
</svg>
